<svg width="428" height="162" viewBox="0 0 428 162" fill="none" xmlns="http://www.w3.org/2000/svg">
<path fill-rule="evenodd" clip-rule="evenodd" d="M428 162L403.496 141.429C380.626 120.857 333.252 82.2857 285.878 77.1429C238.504 74.5714 189.496 108 142.122 118.286C94.7481 128.571 47.374 115.714 24.5038 108L0 100.286V0H24.5038C47.374 0 94.7481 0 142.122 0C189.496 0 238.504 0 285.878 0C333.252 0 380.626 0 403.496 0H428V162Z" fill="#B4D480"/>
<path fill-rule="evenodd" clip-rule="evenodd" d="M428 130L403.496 113.619C380.626 97.2381 333.252 66.5238 285.878 62.4286C238.504 60.3809 189.496 87 142.122 95.1905C94.7481 103.381 47.374 93.1429 24.5038 87L0 80.8571V1H24.5038C47.374 1 94.7481 1 142.122 1C189.496 1 238.504 1 285.878 1C333.252 1 380.626 1 403.496 1H428V130Z" fill="#0783BF"/>
</svg>
